# xmcd
#
# Track frame offsets: 
#        150
#        20312
#        44142
#        56544
#        61513
#        72830
#        84894
#        109285
#        123486
#        128365
#        140558
#        155994
#        172835
#        191761
#        202298
#        209995
#        232143
#        251069
#
# Disc length: 3572 seconds
#
# Revision: 2
# Processed by: cddbd v1.5.2PL0 Copyright (c) Steve Scherf et al.
# Submitted via: ExactAudioCopy v0.99pb4
#
DISCID=130df212
DTITLE=Hinário Litúrgico da CNBB - Festas Litúrgicas III
DYEAR=2003
DGENRE=Religioso
TTITLE0=De alegria vibrei no Senhor
TTITLE1=Uma mulher no céu foi vista
TTITLE2=Cheia de graça (Salmo 45(44))
TTITLE3=Aleluia! Maria é elevada
TTITLE4=É grande o Senhor
TTITLE5=A minh'alma engrandece o Senhor
TTITLE6=Povo de Deus, foi assim
TTITLE7=Escutai minha filha (Salmo 45(44))
TTITLE8=Aleluia! Disse a mãe de Jesus
TTITLE9=Como vai ser?
TTITLE10=Salmo 34(33)
TTITLE11=Ouviste a palavra de Deus
TTITLE12=Caminhando com Maria
TTITLE13=Salmo Responsorial 97
TTITLE14=Aleluia! Deus te salve, ó Maria
TTITLE15=Salve, Maria
TTITLE16=Ave Maria, cheia de graca (Salmo 147(146))
TTITLE17=Imaculada, Maria do povo
EXTD=YEAR: 2005
EXTT0=
EXTT1=
EXTT2=
EXTT3=
EXTT4=
EXTT5=
EXTT6=
EXTT7=
EXTT8=
EXTT9=
EXTT10=
EXTT11=
EXTT12=
EXTT13=
EXTT14=
EXTT15=
EXTT16=
EXTT17=
PLAYORDER=
